{"asset":{"version":"2.0","generator":"THREE.GLTFExporter"},"scenes":[{"nodes":[0],"name":"AuxScene"}],"scene":0,"nodes":[{"mesh":0}],"bufferViews":[{"buffer":0,"byteOffset":0,"byteLength":33732,"target":34962,"byteStride":12},{"buffer":0,"byteOffset":33732,"byteLength":33732,"target":34962,"byteStride":12}],"buffers":[{"byteLength":67464,"uri":"data:application/octet-stream;base64,"}],"accessors":[{"bufferView":0,"componentType":5126,"count":2811,"max":[99.80000305175781,-0.800000011920929,99.8995132446289],"min":[-99.4000015258789,-0.800000011920929,-99.90050506591797],"type":"VEC3"},{"bufferView":1,"componentType":5126,"count":2811,"max":[0,1,0],"min":[0,1,0],"type":"VEC3"}],"materials":[{"pbrMetallicRoughness":{"baseColorFactor":[0.5019607843137255,0.5019607843137255,0.5019607843137255,1],"metallicFactor":0,"roughnessFactor":1}}],"meshes":[{"primitives":[{"mode":4,"attributes":{"POSITION":0,"NORMAL":1},"material":0}]}]}